<svg xmlns="http://www.w3.org/2000/svg" viewBox="0 0 980 980" fill="none" shape-rendering="auto"><metadata xmlns:rdf="http://www.w3.org/1999/02/22-rdf-syntax-ns#" xmlns:xsi="http://www.w3.org/2001/XMLSchema-instance" xmlns:dc="http://purl.org/dc/elements/1.1/" xmlns:dcterms="http://purl.org/dc/terms/"><script xmlns=""/><rdf:RDF><rdf:Description><dc:title>Lorelei</dc:title><dc:creator>Lisa Wischofsky</dc:creator><dc:source xsi:type="dcterms:URI">https://www.figma.com/community/file/1198749693280469639</dc:source><dcterms:license xsi:type="dcterms:URI">https://creativecommons.org/publicdomain/zero/1.0/</dcterms:license><dc:rights>Remix of „Lorelei” (https://www.figma.com/community/file/1198749693280469639) by „Lisa Wischofsky”, licensed under „CC0 1.0” (https://creativecommons.org/publicdomain/zero/1.0/)</dc:rights></rdf:Description></rdf:RDF></metadata><mask id="viewboxMask"><rect width="980" height="980" rx="0" ry="0" x="0" y="0" fill="#fff"/></mask><g mask="url(#viewboxMask)"><g transform="translate(10 -60)"><path d="M534 142c7-1 14-1 21 1s14 6 18 12c7 8 9 18 9 28l31-16c20-9 43-15 65-14 12 1 24 4 34 11 9 6 16 17 16 28 0 8-4 16-8 23-9 15-22 28-36 38 8 6 14 15 14 26 1 7-2 13-5 19 8 14 16 29 18 45 2 12-2 24-8 35-6 10-15 18-26 21-2 0-3-2-4-4l-4-18c-4-19-9-37-15-56-9 1-17 1-26-1-8-2-16-4-23-9a85 85 0 0 1-62 30c-14 0-29-7-41-15-10-7-19-14-23-26l-25 14-41 17-33 14c-10 4-19 10-27 18-6 6-11 13-14 21l-1 13c-3 8-7 13-11 20-8 10-13 23-15 36-3 16-2 34 2 50 2 11 6 21 7 32 4 3 9 6 12 10l-17-1-13-3-2 2c9 3 19 5 27 11 3 3 6 5 8 9-8 0-15 0-22-2-9-2-17-4-25-8-4 2-8 7-13 7-6-2-10-8-14-12-5-4-9-10-12-15l-7-14-10-26a220 220 0 0 1 5-119c7-22 15-44 27-64 15-24 38-44 63-57 12-6 25-12 39-14 1-12 7-24 17-32a74 74 0 0 1 81-4c4-15 12-27 23-37 12-13 29-22 46-24Z" fill="#000000"/><path d="M486 236c57-2 115 18 159 56a209 209 0 0 1 73 190c-1 4-1 8-4 12l-1-3v-33a215 215 0 0 0-172-206 235 235 0 0 0-270 153c-12 37-14 78-6 116 6-2 12-2 17-2 2 1 5 1 6 3s0 3-1 4l-12 4c-14 3-27 8-37 18a63 63 0 0 0-22 45c0 12 3 24 8 35 8 13 19 24 33 31 18 10 41 13 62 7 2-1 4-2 6-1s3 4 4 6l15 30a215 215 0 0 0 72 63c28 15 59 21 90 26 3 1 8 1 10 4 1 2 0 3-2 4l-11 1a231 231 0 0 1-147-62c5 18 8 36 8 54 0 12-2 23-6 34-5 10-11 18-19 26a196 196 0 0 1-60 43c-1-1 1-2 2-3l17-14c13-12 25-23 35-38a93 93 0 0 0 17-65l-4-39-2-10-12-17c-5-10-11-20-13-31a93 93 0 0 1-96-31 81 81 0 0 1-19-51c0-12 3-23 8-34 9-16 23-29 40-36-8-31-8-62-3-93 8-40 26-77 51-108 45-54 115-87 186-88Z" fill="#000"/><path d="M541 252a214 214 0 0 1 172 206v33c-1 5-2 10-1 15-2 2-3 3-3 5-3 18-1 37 1 55 4 29 6 59 2 88-3 28-13 56-30 79-16 21-38 34-62 43-15 6-30 9-45 13-11 2-22 4-32 8 1 2 4 1 6 2 12 1 24-1 36-2-5 8-8 17-9 26-2 10 2 19 9 26 6 7 15 11 24 14 5 2 11 3 17 3 7 9 13 18 14 30 2 12-1 24-8 34-9 14-22 23-37 30-18 9-38 15-57 18a352 352 0 0 1-192-23c-18-10-38-23-48-42-4-7-8-16-6-24 18-10 33-23 47-38 8-8 14-16 19-26 4-11 6-22 6-34 0-18-3-36-8-54a235 235 0 0 0 147 62l11-1c2-1 3-2 2-4-2-3-7-3-10-4-31-5-62-11-90-26-18-10-36-22-50-37-8-8-16-17-22-26l-15-30c-1-2-2-5-4-6s-4 0-6 1a82 82 0 0 1-95-38c-5-11-8-23-8-35 1-17 9-34 22-45 10-10 23-15 37-18l12-4c1-1 2-2 1-4s-4-2-6-3c-5 0-11 0-17 2-8-38-6-79 6-116a236 236 0 0 1 270-153Z" fill="#ffffff"/><path d="m712 506 3 3 1 13 3 45c3 20 5 40 5 60 0 16-1 32-5 47-6 28-20 56-40 76a174 174 0 0 1-88 46c-1 9-4 16-4 25-1 6 2 10 5 15 8 8 18 14 28 19l18 9c-3 3-8 1-12 2-6 0-12-1-17-3-9-3-18-7-24-14-7-7-11-16-9-26 1-9 4-18 9-26-12 1-24 3-36 2-2-1-5 0-6-2 10-4 21-6 32-8 15-4 30-7 45-13 24-9 46-22 62-43 17-23 27-51 30-79 4-29 2-59-2-88-2-18-4-37-1-55 0-2 1-3 3-5ZM262 566c6 0 12 1 15 6 2 3 2 7 1 10-3 8-9 14-11 22-1 4 0 7 3 9 7 5 16 7 24 10l-2 2h-11c-6-1-12-2-17-5-5-4-9-11-7-18 2-9 9-15 12-23-7-4-14-2-20-8 3-4 8-6 13-5Z" fill="#000"/><path d="M681 495c3 0 7 0 10 2 2 1 2 2 1 4l-9 3-24 5c-1 6-1 13-4 19-2 5-6 9-11 9s-9-3-11-7c-3-5-5-11-6-18-4 0-9 1-12-1-1-3 3-4 5-4 12-5 26-7 39-9 7-2 15-2 22-3ZM496 502c5 0 11 0 16 3l3 3c-7 2-13 4-20 4-2 9-4 17-9 25-2 3-5 6-9 5-5-1-10-4-13-9-4-5-8-11-8-18l-56 2c-2-1-6 0-6-3 3-3 8-3 12-4l33-4c19-2 38-4 57-4Z" fill="#000000"/><path d="m650 510-6 17c-4-4-6-10-9-15l15-2ZM484 513l-6 18-4-2c-5-4-8-10-12-15l18-1h4Z" fill="#fff"/><path d="M496 375c10 1 20 4 27 11 3 3 5 7 6 11-11-5-22-6-33-6-6 1-12 4-17 7-23 12-43 29-66 41l-20 14-11 11c-1-5 1-10 2-14 4-10 11-17 19-24l24-17c13-9 27-19 41-26 9-4 18-8 28-8ZM701 411c-6 3-11 3-17 4-5 1-10 3-14 6-9 7-17 15-24 24-9 10-17 18-29 24l-7 2c-2 1-4 0-6 2-4 5-4 13-9 17-2 0-2-2-2-3v-13c1-5 3-12 7-16s9-4 13-8l15-10 23-18c6-5 13-10 20-13 10-3 21-3 30 2Z" fill="#000000"/><path d="M597 505h1l3 15 3 26 8 13 6 12c2 5 2 10 5 14 3 5 5 10 5 16 0 9-6 17-14 20l-19 8c-5 3-9 5-15 5-5 0-11 0-13-5-2-2 0-4 2-5l12-3 16-5 13-5c6-2 9-8 7-14l-5-8-7-17-7-19c-4-8-6-17-5-26 0-7 1-15 4-22Z" fill="#000000"/><path d="M714 580a143 143 0 0 1 12 75l15-2c4-1 7 1 7 5l-3 6-25 26 21 2c11-1 22-1 33 1 3 0 6 1 9 4 2 3 2 7-1 10-2 5-7 8-11 11-11 7-23 13-34 21 7 4 15 6 23 8 3 1 6 2 8 5 3 3 2 8 0 12l-14 10c-10 6-21 11-32 15-9 3-19 4-28 6 2 5 5 10 9 14l13 11c2 4 3 9 0 13-3 2-5 3-9 3a300 300 0 0 1-91-3l-22-4c-1 5 0 11-4 14-3 3-7 4-11 3-10 0-20-3-29-5l-50-12c-4-1-10-3-14-1s-5 8-5 12c-1 4-4 7-8 8s-9-1-13-3c-8-4-16-9-23-15l-23-21c-9-9-18-19-28-26l-4 6h-8l-8-9c-7-10-12-21-18-32-5-8-8-18-11-27l-4-7-10-1c-4-2-6-7-6-11 0-11 2-22 6-33-4-1-6-4-8-8-2-2-3-4-3-7-1-5 0-9 1-14l-3 2c-4-2-5-9-5-13 1-14 5-29 11-42 1-2 2-5 4-6 1-2 3-2 4 0 2 1 2 5 2 7l-4 21 9-15c2-1 5-3 7-1l-1 7-6 24c3-5 5-10 9-13 2-2 5-1 5 1 1 4 0 9-1 13l4-6c6-6 11-13 18-17l10-2c10 0 21 2 31 4 12 2 23 6 36 7l-10-6c-2-3-1-8 3-9 6-3 14-1 20 0l34 6 38 14c15 6 29 13 43 21 15-6 31-10 45-18l25-11c3-2 7-3 10 0 2 2 1 4 1 7l21-17 19-15c5-6 15-7 22-3Z" fill="#000000"/><path d="m636 651-7 8-17 16c-9 10-19 18-32 22-18 6-38 4-57 0-10-3-21-7-31-13l-6-5c0-3 2-4 4-4l17 5 33-4c13-2 27-3 39 0l5-1 19-8c4-2 8-3 13-3 6-4 13-10 20-13Z" fill="#ffffff"/><path d="M534 142c7-1 14-1 21 1s14 6 18 12c7 8 9 18 9 28l31-16c20-9 42-14 64-14 12 1 25 4 35 11 9 6 16 17 16 28 0 8-4 16-8 23-9 15-22 28-36 38 9 7 15 18 14 30-1 8-6 17-11 23-7 8-17 12-27 14a76 76 0 0 1-55-9c-7 9-15 16-25 21-13 7-27 11-42 9-17-3-32-11-45-22-6-5-11-11-14-19l-23 13-44 19c-15 5-30 11-43 19-12 7-24 18-29 31-3 6 0 13-3 18-3 7-7 11-11 17-6 10-11 22-14 33-3 18-2 36 2 53 2 11 6 21 7 32 4 3 9 6 12 10-11 0-21-2-31-4a206 206 0 0 1-53-16c-3 0-4-3-6-5l-9-24c-6-21-6-42-6-64a265 265 0 0 1 37-122c15-24 38-44 63-57 12-6 25-12 39-14 1-13 7-24 18-32 12-10 28-14 43-14 13-1 25 4 37 10 3-14 11-26 21-35 12-14 30-24 48-26ZM289 541c9 1 18 4 27 7 6 2 13 6 18 11l2 4c-9 1-18-1-26-3s-17-5-24-10c-2-1-5-3-4-6s4-3 7-3Z" fill="#000000"/></g><g transform="translate(10 -60)"/></g></svg>